<svg width="39.000000" height="39.000000" viewBox="0 0 39 39" fill="none" xmlns="http://www.w3.org/2000/svg" xmlns:xlink="http://www.w3.org/1999/xlink">
	<desc>
			Created with Pixso.
	</desc>
	<defs>
		<clipPath id="clip5_10394">
			<rect id="bx:link-alt" width="38.577076" height="38.577076" transform="translate(-0.066406 -0.288086)" fill="white" fill-opacity="0"/>
		</clipPath>
	</defs>
	<rect id="bx:link-alt" width="38.577076" height="38.577076" transform="translate(-0.066406 -0.288086)" fill="#FFFFFF" fill-opacity="0"/>
	<g clip-path="url(#clip5_10394)">
		<path id="Vector" d="M6.71 31.5C7.46 32.24 8.34 32.84 9.32 33.24C10.29 33.64 11.34 33.85 12.39 33.85C13.45 33.85 14.5 33.64 15.47 33.24C16.44 32.84 17.33 32.24 18.08 31.5L22.62 26.95L20.35 24.68L15.8 29.22C14.9 30.13 13.67 30.63 12.39 30.63C11.12 30.63 9.89 30.13 8.98 29.22C8.08 28.32 7.58 27.09 7.58 25.82C7.58 24.54 8.08 23.31 8.98 22.41L13.53 17.86L11.26 15.59L6.71 20.13C5.21 21.64 4.36 23.68 4.36 25.82C4.36 27.95 5.21 29.99 6.71 31.5ZM31.72 17.86C33.22 16.35 34.07 14.31 34.07 12.18C34.07 10.05 33.22 8 31.72 6.49C30.21 4.99 28.16 4.14 26.03 4.14C23.9 4.14 21.86 4.99 20.35 6.49L15.8 11.04L18.08 13.31L22.62 8.77C23.53 7.86 24.76 7.36 26.03 7.36C27.31 7.36 28.54 7.86 29.44 8.77C30.35 9.67 30.85 10.9 30.85 12.18C30.85 13.46 30.35 14.68 29.44 15.59L24.9 20.13L27.17 22.41L31.72 17.86Z" fill="#888888" fill-opacity="1.000000" fill-rule="nonzero"/>
		<path id="Vector" d="M13.53 26.95L11.26 24.68L24.9 11.04L27.17 13.31L13.53 26.95Z" fill="#888888" fill-opacity="1.000000" fill-rule="nonzero"/>
	</g>
</svg>
