<svg width="15.941406" height="16.000000" viewBox="0 0 15.9414 16" fill="none" xmlns="http://www.w3.org/2000/svg" xmlns:xlink="http://www.w3.org/1999/xlink">
	<desc>
			Created with Pixso.
	</desc>
	<defs/>
	<mask id="mask_5_11383" fill="white">
		<path id="Path 8" d="M7.93262 0C8.99316 0.0380859 10.0918 0.0380859 11.1523 0.0761719C12.0986 0.113281 12.9697 0.264648 13.8037 0.757812C14.8643 1.40137 15.5078 2.34863 15.7354 3.56055C15.8486 4.28027 15.8867 5.03711 15.9248 5.75684C15.9492 6.81738 15.9414 7.87793 15.9326 8.93848C15.9287 9.46875 15.9248 9.99902 15.9248 10.5293C15.9248 11.3623 15.8867 12.1953 15.6211 12.9912C15.0908 14.5439 13.9932 15.4912 12.4023 15.7939C11.6826 15.9453 10.9248 15.9453 10.2051 15.9834C9.14648 16.0088 8.10352 16 7.05566 15.9912L7.05566 15.9912C6.53027 15.9873 6.00293 15.9834 5.4707 15.9834C4.6377 15.9834 3.80469 15.9453 3.00879 15.6807C1.45605 15.1504 0.508789 14.0518 0.206055 12.4609C0.0546875 11.7412 0.0546875 10.9834 0.0166016 10.2637C-0.00878906 9.20312 0 8.14355 0.00878906 7.08301C0.0126953 6.55273 0.0166016 6.02246 0.0166016 5.49219C0.0166016 4.6582 0.0546875 3.8252 0.320312 3.03027C0.849609 1.47754 1.94824 0.530273 3.53906 0.227539C4.25879 0.0761719 5.0166 0.0761719 5.73633 0.0380859C6.45605 0 7.1748 0 7.93262 0ZM14.4482 5.94629C14.4482 6.58984 14.4482 7.19629 14.4863 7.83984C14.4482 9.08984 14.4482 10.3018 14.373 11.4385C14.335 12.3467 14.0693 13.1426 13.3125 13.748C12.8574 14.127 12.3271 14.3164 11.7588 14.3545C11.1533 14.4307 10.5469 14.4678 9.94141 14.4678C9.48438 14.4678 9.03125 14.4727 8.58105 14.4766C7.68848 14.4854 6.80762 14.4932 5.92676 14.4678C5.20703 14.4678 4.4873 14.4307 3.80566 14.3164C2.44238 14.0898 1.6084 13.1426 1.49512 11.7793C1.41895 10.8701 1.38184 9.92285 1.38184 9.01465C1.38184 7.5752 1.38184 6.13574 1.41895 4.69629C1.45703 4.31738 1.49512 3.93848 1.6084 3.56055C1.94922 2.42383 2.74512 1.78027 3.88086 1.59082C4.52539 1.47754 5.20703 1.43945 5.88867 1.43945C7.25195 1.40137 8.57812 1.40137 9.94141 1.43945C10.623 1.43945 11.3809 1.43945 12.0625 1.59082C13.3877 1.85547 14.1836 2.76465 14.335 4.12793C14.4102 4.73438 14.4482 5.33984 14.4482 5.94629Z" clip-rule="evenodd" fill="" fill-opacity="1.000000" fill-rule="evenodd"/>
	</mask>
	<path id="Path 8" d="M7.93262 0C8.99316 0.0380859 10.0918 0.0380859 11.1523 0.0761719C12.0986 0.113281 12.9697 0.264648 13.8037 0.757812C14.8643 1.40137 15.5078 2.34863 15.7354 3.56055C15.8486 4.28027 15.8867 5.03711 15.9248 5.75684C15.9492 6.81738 15.9414 7.87793 15.9326 8.93848C15.9287 9.46875 15.9248 9.99902 15.9248 10.5293C15.9248 11.3623 15.8867 12.1953 15.6211 12.9912C15.0908 14.5439 13.9932 15.4912 12.4023 15.7939C11.6826 15.9453 10.9248 15.9453 10.2051 15.9834C9.14648 16.0088 8.10352 16 7.05566 15.9912L7.05566 15.9912C6.53027 15.9873 6.00293 15.9834 5.4707 15.9834C4.6377 15.9834 3.80469 15.9453 3.00879 15.6807C1.45605 15.1504 0.508789 14.0518 0.206055 12.4609C0.0546875 11.7412 0.0546875 10.9834 0.0166016 10.2637C-0.00878906 9.20312 0 8.14355 0.00878906 7.08301C0.0126953 6.55273 0.0166016 6.02246 0.0166016 5.49219C0.0166016 4.6582 0.0546875 3.8252 0.320312 3.03027C0.849609 1.47754 1.94824 0.530273 3.53906 0.227539C4.25879 0.0761719 5.0166 0.0761719 5.73633 0.0380859C6.45605 0 7.1748 0 7.93262 0ZM14.4482 5.94629C14.4482 6.58984 14.4482 7.19629 14.4863 7.83984C14.4482 9.08984 14.4482 10.3018 14.373 11.4385C14.335 12.3467 14.0693 13.1426 13.3125 13.748C12.8574 14.127 12.3271 14.3164 11.7588 14.3545C11.1533 14.4307 10.5469 14.4678 9.94141 14.4678C9.48438 14.4678 9.03125 14.4727 8.58105 14.4766C7.68848 14.4854 6.80762 14.4932 5.92676 14.4678C5.20703 14.4678 4.4873 14.4307 3.80566 14.3164C2.44238 14.0898 1.6084 13.1426 1.49512 11.7793C1.41895 10.8701 1.38184 9.92285 1.38184 9.01465C1.38184 7.5752 1.38184 6.13574 1.41895 4.69629C1.45703 4.31738 1.49512 3.93848 1.6084 3.56055C1.94922 2.42383 2.74512 1.78027 3.88086 1.59082C4.52539 1.47754 5.20703 1.43945 5.88867 1.43945C7.25195 1.40137 8.57812 1.40137 9.94141 1.43945C10.623 1.43945 11.3809 1.43945 12.0625 1.59082C13.3877 1.85547 14.1836 2.76465 14.335 4.12793C14.4102 4.73438 14.4482 5.33984 14.4482 5.94629Z" clip-rule="evenodd" fill="#000000" fill-opacity="1.000000" fill-rule="evenodd" mask="url(#mask_5_11383)"/>
	<path id="Path 8" d="" fill="#707070" fill-opacity="0.000000" fill-rule="nonzero"/>
	<mask id="mask_5_11386" fill="white">
		<path id="Path 9" d="M7.93457 12.0811C10.207 12.0811 12.0244 10.2637 12.0244 7.99121C12.0244 5.71875 10.207 3.90039 7.97168 3.90039C5.69922 3.90039 3.84375 5.71875 3.84375 7.95312C3.84375 10.2637 5.66211 12.0811 7.93457 12.0811ZM10.585 7.99121C10.585 9.42969 9.37305 10.6426 7.93359 10.6426C6.45605 10.6426 5.24414 9.42969 5.28223 7.99121C5.28223 6.55176 6.45605 5.33984 7.93359 5.33984C9.37305 5.33984 10.585 6.55176 10.585 7.99121Z" clip-rule="evenodd" fill="" fill-opacity="1.000000" fill-rule="evenodd"/>
	</mask>
	<path id="Path 9" d="M7.93457 12.0811C10.207 12.0811 12.0244 10.2637 12.0244 7.99121C12.0244 5.71875 10.207 3.90039 7.97168 3.90039C5.69922 3.90039 3.84375 5.71875 3.84375 7.95312C3.84375 10.2637 5.66211 12.0811 7.93457 12.0811ZM10.585 7.99121C10.585 9.42969 9.37305 10.6426 7.93359 10.6426C6.45605 10.6426 5.24414 9.42969 5.28223 7.99121C5.28223 6.55176 6.45605 5.33984 7.93359 5.33984C9.37305 5.33984 10.585 6.55176 10.585 7.99121Z" clip-rule="evenodd" fill="#000000" fill-opacity="1.000000" fill-rule="evenodd" mask="url(#mask_5_11386)"/>
	<path id="Path 9" d="" fill="#707070" fill-opacity="0.000000" fill-rule="nonzero"/>
	<path id="Path 10" d="M13.1221 3.71191C13.1221 4.24219 12.7061 4.69629 12.1758 4.69629C11.6455 4.69629 11.1904 4.24219 11.2285 3.71191C11.2285 3.18164 11.6455 2.76465 12.1758 2.76465C12.7061 2.76465 13.1221 3.18164 13.1221 3.71191Z" fill="#000000" fill-opacity="1.000000" fill-rule="nonzero"/>
</svg>
