<svg width="11.000000" height="5.000000" viewBox="0 0 11 5" fill="none" xmlns="http://www.w3.org/2000/svg" xmlns:xlink="http://www.w3.org/1999/xlink">
	<desc>
			Created with Pixso.
	</desc>
	<defs/>
	<path id="Vector" d="M10.9 0.31C10.9 0.43 10.87 0.55 10.82 0.66C10.77 0.76 10.69 0.86 10.6 0.93L5.81 4.79C5.67 4.91 5.49 4.97 5.3 4.97C5.12 4.97 4.94 4.91 4.8 4.79L0 0.8C-0.16 0.66 -0.26 0.47 -0.28 0.26C-0.3 0.05 -0.24 -0.16 -0.1 -0.33C0.04 -0.49 0.23 -0.59 0.44 -0.61C0.65 -0.63 0.86 -0.57 1.03 -0.43L5.31 3.14L9.59 -0.31C9.7 -0.41 9.85 -0.47 10 -0.49C10.15 -0.51 10.3 -0.48 10.44 -0.42C10.58 -0.35 10.69 -0.25 10.77 -0.12C10.86 0.01 10.9 0.16 10.9 0.31Z" fill="#000000" fill-opacity="1.000000" fill-rule="nonzero"/>
</svg>
