<svg width="15.941406" height="12.977539" viewBox="0 0 15.9414 12.9775" fill="none" xmlns="http://www.w3.org/2000/svg" xmlns:xlink="http://www.w3.org/1999/xlink">
	<desc>
			Created with Pixso.
	</desc>
	<defs/>
	<mask id="mask_5_11395" fill="white">
		<path id="Path 6" d="M15.9414 1.53809C15.3408 1.80078 14.7412 1.98828 14.0654 2.0625C14.7412 1.65039 15.2656 1.0127 15.4912 0.262695C14.8535 0.637695 14.1406 0.900391 13.4277 1.0498C12.8281 0.412109 11.9648 0 11.0273 0C9.22754 0 7.76465 1.46289 7.76465 3.26367C7.76465 3.52539 7.80176 3.78809 7.83887 4.01367C5.10156 3.86328 2.7002 2.58789 1.08789 0.600586C0.788086 1.08789 0.637695 1.65039 0.637695 2.25098C0.637695 3.37598 1.2002 4.38867 2.10059 4.98828C1.5752 4.98828 1.0498 4.83887 0.600586 4.57617L0.600586 4.61328C0.600586 6.18848 1.72559 7.53906 3.22559 7.83887C2.96289 7.91406 2.66309 7.95215 2.36328 7.95215C2.1377 7.95215 1.9502 7.91406 1.7627 7.87695C2.17578 9.18945 3.37598 10.127 4.83887 10.165C3.71289 11.0273 2.3252 11.5527 0.788086 11.5527C0.525391 11.5527 0.262695 11.5527 0 11.5146C1.46289 12.4531 3.15039 12.9775 5.02637 12.9775C11.0654 12.9775 14.3281 7.98926 14.3281 3.67578L14.3281 3.26367C14.9658 2.77539 15.5283 2.17578 15.9414 1.53809Z" clip-rule="evenodd" fill="" fill-opacity="1.000000" fill-rule="evenodd"/>
	</mask>
	<path id="Path 6" d="M15.9414 1.53809C15.3408 1.80078 14.7412 1.98828 14.0654 2.0625C14.7412 1.65039 15.2656 1.0127 15.4912 0.262695C14.8535 0.637695 14.1406 0.900391 13.4277 1.0498C12.8281 0.412109 11.9648 0 11.0273 0C9.22754 0 7.76465 1.46289 7.76465 3.26367C7.76465 3.52539 7.80176 3.78809 7.83887 4.01367C5.10156 3.86328 2.7002 2.58789 1.08789 0.600586C0.788086 1.08789 0.637695 1.65039 0.637695 2.25098C0.637695 3.37598 1.2002 4.38867 2.10059 4.98828C1.5752 4.98828 1.0498 4.83887 0.600586 4.57617L0.600586 4.61328C0.600586 6.18848 1.72559 7.53906 3.22559 7.83887C2.96289 7.91406 2.66309 7.95215 2.36328 7.95215C2.1377 7.95215 1.9502 7.91406 1.7627 7.87695C2.17578 9.18945 3.37598 10.127 4.83887 10.165C3.71289 11.0273 2.3252 11.5527 0.788086 11.5527C0.525391 11.5527 0.262695 11.5527 0 11.5146C1.46289 12.4531 3.15039 12.9775 5.02637 12.9775C11.0654 12.9775 14.3281 7.98926 14.3281 3.67578L14.3281 3.26367C14.9658 2.77539 15.5283 2.17578 15.9414 1.53809Z" clip-rule="evenodd" fill="#000000" fill-opacity="1.000000" fill-rule="evenodd" mask="url(#mask_5_11395)"/>
	<path id="Path 6" d="" fill="#707070" fill-opacity="0.000000" fill-rule="nonzero"/>
</svg>
