<svg width="7.384766" height="15.941406" viewBox="0 0 7.38477 15.9414" fill="none" xmlns="http://www.w3.org/2000/svg" xmlns:xlink="http://www.w3.org/1999/xlink">
	<desc>
			Created with Pixso.
	</desc>
	<defs/>
	<mask id="mask_5_11379" fill="white">
		<path id="Path 13" d="M7.11133 7.9707L4.88379 7.9707L4.88379 15.9414L1.5625 15.9414L1.5625 7.9707L0 7.9707L0 5.15723L1.5625 5.15723L1.5625 3.32129C1.5625 2.03125 2.18848 0 4.88379 0L7.3457 0L7.3457 2.73535L5.58691 2.73535C5.31348 2.73535 4.88379 2.8916 4.88379 3.5166L4.88379 5.15723L7.38477 5.15723L7.11133 7.9707Z" clip-rule="evenodd" fill="" fill-opacity="1.000000" fill-rule="evenodd"/>
	</mask>
	<path id="Path 13" d="M7.11133 7.9707L4.88379 7.9707L4.88379 15.9414L1.5625 15.9414L1.5625 7.9707L0 7.9707L0 5.15723L1.5625 5.15723L1.5625 3.32129C1.5625 2.03125 2.18848 0 4.88379 0L7.3457 0L7.3457 2.73535L5.58691 2.73535C5.31348 2.73535 4.88379 2.8916 4.88379 3.5166L4.88379 5.15723L7.38477 5.15723L7.11133 7.9707Z" clip-rule="evenodd" fill="#000000" fill-opacity="1.000000" fill-rule="evenodd" mask="url(#mask_5_11379)"/>
	<path id="Path 13" d="" fill="#707070" fill-opacity="0.000000" fill-rule="nonzero"/>
</svg>
