<svg width="15.941406" height="15.210938" viewBox="0 0 15.9414 15.2109" fill="none" xmlns="http://www.w3.org/2000/svg" xmlns:xlink="http://www.w3.org/1999/xlink">
	<desc>
			Created with Pixso.
	</desc>
	<defs/>
	<mask id="mask_5_11390" fill="white">
		<path id="Path 7" d="M0 1.76172C0 0.773438 0.773438 0 1.93359 0C3.09375 0 3.82422 0.773438 3.86719 1.76172C3.86719 2.75 3.13672 3.52344 1.93359 3.52344L1.89062 3.52344C0.730469 3.52344 0 2.75 0 1.76172ZM15.9414 9.32422L15.9414 15.2109L12.5039 15.2109L12.5039 9.71094C12.5039 8.33594 12.0312 7.39062 10.7852 7.39062C9.83984 7.39062 9.28125 8.03516 9.02344 8.63672C8.9375 8.85156 8.89453 9.15234 8.89453 9.45312L8.89453 15.2109L5.45703 15.2109C5.45703 15.2109 5.5 5.88672 5.45703 4.94141L8.89453 4.94141L8.89453 6.40234C8.89453 6.40234 8.89453 6.44531 8.85156 6.44531L8.89453 6.44531L8.89453 6.40234C9.36719 5.71484 10.1406 4.68359 11.9883 4.68359C14.2227 4.68359 15.9414 6.1875 15.9414 9.32422ZM0.171875 15.2109L3.56641 15.2109L3.56641 4.94141L0.171875 4.94141L0.171875 15.2109Z" clip-rule="evenodd" fill="" fill-opacity="1.000000" fill-rule="evenodd"/>
	</mask>
	<path id="Path 7" d="M0 1.76172C0 0.773438 0.773438 0 1.93359 0C3.09375 0 3.82422 0.773438 3.86719 1.76172C3.86719 2.75 3.13672 3.52344 1.93359 3.52344L1.89062 3.52344C0.730469 3.52344 0 2.75 0 1.76172ZM15.9414 9.32422L15.9414 15.2109L12.5039 15.2109L12.5039 9.71094C12.5039 8.33594 12.0312 7.39062 10.7852 7.39062C9.83984 7.39062 9.28125 8.03516 9.02344 8.63672C8.9375 8.85156 8.89453 9.15234 8.89453 9.45312L8.89453 15.2109L5.45703 15.2109C5.45703 15.2109 5.5 5.88672 5.45703 4.94141L8.89453 4.94141L8.89453 6.40234C8.89453 6.40234 8.89453 6.44531 8.85156 6.44531L8.89453 6.44531L8.89453 6.40234C9.36719 5.71484 10.1406 4.68359 11.9883 4.68359C14.2227 4.68359 15.9414 6.1875 15.9414 9.32422ZM0.171875 15.2109L3.56641 15.2109L3.56641 4.94141L0.171875 4.94141L0.171875 15.2109Z" clip-rule="evenodd" fill="#000000" fill-opacity="1.000000" fill-rule="evenodd" mask="url(#mask_5_11390)"/>
	<path id="Path 7" d="" fill="#707070" fill-opacity="0.000000" fill-rule="nonzero"/>
</svg>
