<svg width="22.000000" height="23.000000" viewBox="0 0 22 23" fill="none" xmlns="http://www.w3.org/2000/svg" xmlns:xlink="http://www.w3.org/1999/xlink">
	<desc>
			Created with Pixso.
	</desc>
	<defs/>
	<path id="Vector" d="M19.04 16.24C19.04 15.87 18.92 15.57 18.66 15.32L15.85 12.5C15.59 12.25 15.29 12.12 14.93 12.12C14.55 12.12 14.22 12.26 13.95 12.55C13.98 12.58 14.07 12.66 14.21 12.8C14.35 12.94 14.45 13.04 14.5 13.09C14.55 13.15 14.62 13.23 14.7 13.35C14.79 13.47 14.85 13.58 14.88 13.7C14.91 13.81 14.93 13.93 14.93 14.07C14.93 14.43 14.8 14.74 14.55 14.99C14.3 15.24 13.99 15.37 13.63 15.37C13.49 15.37 13.37 15.35 13.25 15.32C13.14 15.29 13.03 15.23 12.91 15.15C12.79 15.06 12.71 14.99 12.65 14.94C12.6 14.89 12.5 14.8 12.36 14.65C12.22 14.51 12.14 14.42 12.11 14.39C11.81 14.67 11.66 15 11.66 15.38C11.66 15.74 11.79 16.05 12.04 16.3L14.83 19.11C15.08 19.35 15.38 19.47 15.75 19.47C16.11 19.47 16.42 19.36 16.67 19.12L18.66 17.14C18.92 16.89 19.04 16.59 19.04 16.24ZM9.52 6.69C9.52 6.33 9.4 6.02 9.14 5.77L6.35 2.96C6.1 2.71 5.79 2.58 5.43 2.58C5.08 2.58 4.77 2.71 4.51 2.95L2.52 4.93C2.27 5.18 2.14 5.48 2.14 5.83C2.14 6.2 2.27 6.5 2.52 6.76L5.34 9.57C5.58 9.82 5.89 9.94 6.26 9.94C6.64 9.94 6.96 9.8 7.24 9.52C7.21 9.49 7.12 9.41 6.98 9.27C6.83 9.13 6.74 9.03 6.69 8.98C6.64 8.92 6.57 8.84 6.48 8.72C6.4 8.6 6.34 8.49 6.31 8.37C6.27 8.26 6.26 8.14 6.26 8C6.26 7.64 6.39 7.33 6.64 7.08C6.89 6.83 7.2 6.7 7.56 6.7C7.69 6.7 7.82 6.72 7.93 6.75C8.05 6.78 8.16 6.84 8.28 6.93C8.4 7.01 8.48 7.08 8.53 7.13C8.59 7.18 8.69 7.28 8.83 7.42C8.97 7.56 9.05 7.65 9.08 7.68C9.37 7.4 9.52 7.07 9.52 6.69ZM21.65 16.24C21.65 17.32 21.26 18.24 20.49 18.99L18.5 20.96C17.75 21.71 16.84 22.09 15.75 22.09C14.66 22.09 13.74 21.7 12.99 20.94L10.2 18.13C9.45 17.38 9.08 16.47 9.08 15.38C9.08 14.27 9.47 13.33 10.27 12.55L9.08 11.36C8.3 12.16 7.36 12.55 6.26 12.55C5.18 12.55 4.25 12.17 3.5 11.41L0.68 8.6C-0.08 7.84 -0.46 6.92 -0.46 5.83C-0.46 4.75 -0.08 3.83 0.69 3.09L2.68 1.11C3.43 0.36 4.35 -0.02 5.43 -0.02C6.53 -0.02 7.45 0.37 8.2 1.14L10.99 3.94C11.74 4.69 12.11 5.6 12.11 6.69C12.11 7.8 11.71 8.74 10.92 9.52L12.11 10.71C12.89 9.92 13.83 9.52 14.93 9.52C16.01 9.52 16.93 9.9 17.69 10.66L20.51 13.47C21.27 14.23 21.65 15.15 21.65 16.24Z" fill="#000000" fill-opacity="1.000000" fill-rule="nonzero"/>
</svg>
